<?xml version="1.0" encoding="utf-8"?>
<!-- Generator: Adobe Illustrator 25.4.1, SVG Export Plug-In . SVG Version: 6.00 Build 0)  -->
<svg version="1.1" id="Layer_1" xmlns="http://www.w3.org/2000/svg" xmlns:xlink="http://www.w3.org/1999/xlink" x="0px" y="0px"
	 viewBox="0 0 48 48" style="enable-background:new 0 0 48 48;" xml:space="preserve">
<g id="XMLID_00000018919837744612006490000007756725947684896697_">
	<g>
		<path d="M41,18l4,24c0,1.1-0.9,2-2,2H5c-1.1,0-2-0.9-2-2l4-24c0.31-1.35,0.96-2,2.37-2h2.83c-0.13,0.98-0.2,1.98-0.2,3
			c0,0.55,0.45,1,1,1s1-0.45,1-1c0-1.03,0.07-2.03,0.2-3h19.6c0.13,0.97,0.2,1.97,0.2,3c0,0.55,0.45,1,1,1s1-0.45,1-1
			c0-1.02-0.08-2.02-0.2-3h2.83C40.04,16,40.69,16.65,41,18z"/>
		<path d="M33.42,14C32.04,8.18,28.35,4,24,4s-8.05,4.18-9.42,10H33.42z M5,18c0.68-3.44,2.67-4,4.88-4h2.65C14.04,7.05,18.6,2,24,2
			s9.96,5.05,11.47,12h2.65c2.21,0,4.2,0.56,4.88,4l4,24c0,2.21-1.79,4-4,4H5c-2.21,0-4-1.79-4-4L5,18z M12.2,16H9.37
			C7.96,16,7.31,16.65,7,18L3,42c0,1.1,0.9,2,2,2h38c1.1,0,2-0.9,2-2l-4-24c-0.31-1.35-0.96-2-2.37-2H35.8c0.12,0.98,0.2,1.98,0.2,3
			c0,0.55-0.45,1-1,1s-1-0.45-1-1c0-1.03-0.07-2.03-0.2-3H14.2c-0.13,0.97-0.2,1.97-0.2,3c0,0.55-0.45,1-1,1s-1-0.45-1-1
			C12,17.98,12.07,16.98,12.2,16z"/>
	</g>
	<g>
	</g>
</g>
</svg>
