<?xml version="1.0" encoding="utf-8"?>
<!-- Generator: Adobe Illustrator 25.4.1, SVG Export Plug-In . SVG Version: 6.00 Build 0)  -->
<svg version="1.1" id="Слой_1" xmlns="http://www.w3.org/2000/svg" xmlns:xlink="http://www.w3.org/1999/xlink" x="0px" y="0px"
	 viewBox="0 0 139 139" style="enable-background:new 0 0 139 139;" xml:space="preserve">
<style type="text/css">
	.st0{fill:none;stroke:#000000;stroke-width:6;stroke-miterlimit:10;}
</style>
<g id="XMLID_00000036967783678666289690000018229805092531378353_">
	<g>
		<path d="M114.5,43.6v81.8c0,1.4-1.2,2.6-2.6,2.6H27.1c-1.4,0-2.6-1.2-2.6-2.6V43.6c0-1.4,1.2-2.6,2.6-2.6h84.8
			C113.3,41,114.5,42.2,114.5,43.6z"/>
	</g>
	<g>
		<path class="st0" d="M111.9,128H27.1c-1.4,0-2.6-1.2-2.6-2.6V43.6c0-1.4,1.2-2.6,2.6-2.6h84.8c1.4,0,2.6,1.2,2.6,2.6v81.8
			C114.5,126.8,113.3,128,111.9,128z"/>
	</g>
</g>
<path id="XMLID_7_" class="st0" d="M43.5,41c0-30,26-30,26-30s26,0,26,30"/>
</svg>
