<?xml version="1.0" encoding="utf-8"?>
<!-- Generator: Adobe Illustrator 25.4.1, SVG Export Plug-In . SVG Version: 6.00 Build 0)  -->
<svg version="1.1" xmlns="http://www.w3.org/2000/svg" xmlns:xlink="http://www.w3.org/1999/xlink" x="0px" y="0px"
	 viewBox="0 0 16 16" style="enable-background:new 0 0 16 16;" xml:space="preserve">
<style type="text/css">
	.st0{display:none;}
	.st1{display:inline;}
	.st2{fill:none;stroke:#000000;stroke-width:0.4;stroke-miterlimit:10;}
	.st3{fill:none;stroke:#000000;stroke-width:0.4;stroke-linecap:round;stroke-linejoin:round;stroke-miterlimit:10;}
</style>
<g id="图层_1" class="st0">
	<g id="Guide" class="st1">
	</g>
	<g id="Layer_2" class="st1">
		<g>
			<path d="M8,7c1.38,0,2.5-1.12,2.5-2.5S9.38,2,8,2S5.5,3.12,5.5,4.5S6.62,7,8,7z M8,3c0.83,0,1.5,0.67,1.5,1.5S8.83,6,8,6
				S6.5,5.33,6.5,4.5S7.17,3,8,3z"/>
			<path d="M9.71,7.5H6.29C4.47,7.5,3,9.07,3,10.99v2.51C3,13.78,3.22,14,3.5,14h9c0.28,0,0.5-0.22,0.5-0.5v-2.51
				C13,9.07,11.53,7.5,9.71,7.5z M12,13H4v-2.01C4,9.62,5.03,8.5,6.29,8.5h3.43c1.26,0,2.29,1.12,2.29,2.49V13H12z"/>
		</g>
	</g>
</g>
<g id="图层_2">
	<circle class="st2" cx="8.01" cy="4.5" r="2.17"/>
	<path class="st3" d="M3.59,13.39L3.59,13.39L3.59,13.39v-3.19C3.59,8.98,4.57,8,5.78,8h4.44c1.21,0,2.19,0.98,2.19,2.19v3.19
		C9.47,13.39,6.53,13.39,3.59,13.39z"/>
	<path class="st3" d="M13.65,11.7"/>
</g>
</svg>
