<?xml version="1.0" encoding="utf-8"?>
<!-- Generator: Adobe Illustrator 25.4.1, SVG Export Plug-In . SVG Version: 6.00 Build 0)  -->
<svg version="1.1" id="图层_1" xmlns="http://www.w3.org/2000/svg" xmlns:xlink="http://www.w3.org/1999/xlink" x="0px" y="0px"
	 viewBox="0 0 50 50" style="enable-background:new 0 0 50 50;" xml:space="preserve">
<style type="text/css">
	.st0{fill:#BEBEBE;}
</style>
<g id="Layer_1">
	<g id="XMLID_00000036232593033335264870000011881403235161789880_">
		<g>
			<path class="st0" d="M9,38v2.08C5.28,36.13,3,30.83,3,25C3,12.87,12.87,3,25,3s22,9.87,22,22c0,5.83-2.28,11.13-6,15.08V38
				c0-6.27-4.46-11.52-10.38-12.74C33.26,23.46,35,20.43,35,17c0-5.51-4.49-10-10-10s-10,4.49-10,10c0,3.43,1.74,6.46,4.38,8.26
				C13.46,26.48,9,31.73,9,38z"/>
			<path class="st0" d="M15.91,45.02c1.66,0.76,3.41,1.31,5.21,1.63c0.05,0.01,0.11,0.02,0.17,0.03c0.56,0.1,1.14,0.17,1.71,0.22
				c0.08,0.01,0.16,0.02,0.24,0.02C23.83,46.97,24.41,47,25,47s1.17-0.03,1.76-0.08c0.08,0,0.16-0.01,0.24-0.01
				c0.57-0.06,1.15-0.13,1.71-0.23c0.06-0.01,0.12-0.02,0.17-0.03c1.8-0.32,3.55-0.87,5.22-1.62c0.05-0.03,0.1-0.05,0.16-0.08
				c0.51-0.23,1-0.49,1.49-0.77c0.09-0.05,0.18-0.1,0.26-0.15c0.47-0.27,0.93-0.55,1.37-0.86c0.1-0.06,0.19-0.13,0.28-0.19
				c0.41-0.29,0.82-0.6,1.21-0.92c0.04-0.03,0.09-0.07,0.13-0.1V38c0-6.07-4.94-11-11-11h-6c-6.07,0-11,4.93-11,11v3.96
				c0.04,0.03,0.09,0.06,0.13,0.1c0.39,0.32,0.8,0.62,1.21,0.92c0.09,0.06,0.18,0.13,0.28,0.19c0.44,0.31,0.9,0.59,1.37,0.86
				c0.09,0.05,0.17,0.1,0.26,0.15c0.49,0.28,0.99,0.53,1.49,0.77C15.8,44.98,15.85,45,15.91,45.02z M17,17c0,4.41,3.59,8,8,8
				s8-3.59,8-8s-3.59-8-8-8S17,12.59,17,17z M25,3C12.87,3,3,12.87,3,25c0,5.83,2.28,11.13,6,15.08V38
				c0-6.27,4.46-11.52,10.38-12.74C16.74,23.46,15,20.43,15,17c0-5.51,4.49-10,10-10s10,4.49,10,10c0,3.43-1.74,6.46-4.38,8.26
				C36.54,26.48,41,31.73,41,38v2.08c3.72-3.95,6-9.25,6-15.08C47,12.87,37.13,3,25,3z M1,25C1,11.77,11.77,1,25,1s24,10.77,24,24
				c0,7.09-3.09,13.47-8,17.87v0.02l-0.35,0.3c-0.06,0.05-0.13,0.09-0.19,0.14c-0.43,0.37-0.87,0.72-1.33,1.05
				c-0.12,0.09-0.25,0.18-0.37,0.27c-0.48,0.33-0.98,0.66-1.49,0.96c-0.08,0.05-0.17,0.1-0.25,0.15c-0.56,0.32-1.13,0.63-1.71,0.91
				c-0.01,0-0.02,0-0.02,0.01c-1.25,0.59-2.56,1.08-3.92,1.45c-0.02,0.01-0.05,0.02-0.07,0.02c-0.64,0.18-1.3,0.33-1.96,0.45
				c-0.06,0.01-0.12,0.02-0.18,0.03c-0.64,0.11-1.28,0.2-1.94,0.26c-0.07,0.01-0.15,0.01-0.22,0.02C26.34,48.97,25.67,49,25,49
				s-1.34-0.03-2-0.09c-0.07-0.01-0.15-0.01-0.22-0.02c-0.66-0.06-1.3-0.15-1.94-0.26c-0.06-0.01-0.12-0.02-0.18-0.03
				c-0.67-0.12-1.32-0.27-1.96-0.45c-0.02,0-0.05-0.01-0.07-0.02c-1.36-0.37-2.67-0.86-3.92-1.45c0-0.01-0.01-0.01-0.02-0.01
				c-0.58-0.28-1.15-0.58-1.71-0.91c-0.08-0.05-0.17-0.1-0.25-0.15c-0.51-0.3-1.01-0.62-1.49-0.96c-0.13-0.09-0.25-0.18-0.37-0.27
				c-0.46-0.33-0.9-0.68-1.33-1.05c-0.06-0.05-0.13-0.09-0.19-0.14L9,42.89v-0.02C4.09,38.47,1,32.09,1,25z"/>
		</g>
		<g>
		</g>
	</g>
</g>
</svg>
